<?xml version="1.0" encoding="UTF-8" standalone="no"?>
<!DOCTYPE svg PUBLIC "-//W3C//DTD SVG 1.1//EN" "http://www.w3.org/Graphics/SVG/1.1/DTD/svg11.dtd">
<svg width="100%" height="100%" viewBox="0 0 1280 800" version="1.1" xmlns="http://www.w3.org/2000/svg" xmlns:xlink="http://www.w3.org/1999/xlink" xml:space="preserve" xmlns:serif="http://www.serif.com/" style="fill-rule:evenodd;clip-rule:evenodd;stroke-linejoin:round;stroke-miterlimit:1.41421;">
    <rect id="Artboard1" x="0" y="0" width="1280" height="800" style="fill:rgb(224,0,81);"/>
    <clipPath id="_clip1">
        <rect id="Artboard11" serif:id="Artboard1" x="0" y="0" width="1280" height="800"/>
    </clipPath>
    <g clip-path="url(#_clip1)">
        <g>
            <clipPath id="_clip2">
                <rect x="0" y="0" width="1280" height="800"/>
            </clipPath>
            <g clip-path="url(#_clip2)">
                <g transform="matrix(-1,0,0,1,1563.65,-23.4957)">
                    <path d="M283.65,0L283.65,122.381C283.65,122.381 344.899,325.45 449.048,324.516C555.409,323.561 572.544,85.742 646.158,85.377C715.901,85.031 763.715,217.546 844.592,215.169C933.444,212.558 1026.87,0 1026.87,0L283.65,0Z" style="fill:rgb(204,0,78);"/>
                    <clipPath id="_clip3">
                        <path d="M283.65,0L283.65,122.381C283.65,122.381 344.899,325.45 449.048,324.516C555.409,323.561 572.544,85.742 646.158,85.377C715.901,85.031 763.715,217.546 844.592,215.169C933.444,212.558 1026.87,0 1026.87,0L283.65,0Z"/>
                    </clipPath>
                    <g clip-path="url(#_clip3)">
                        <g transform="matrix(1,0,0,1,-21.557,-125.816)">
                            <path d="M283.65,0L283.65,122.381C283.65,122.381 344.899,325.45 449.048,324.516C555.409,323.561 572.544,85.742 646.158,85.377C715.901,85.031 763.715,217.546 844.592,215.169C933.444,212.558 1026.87,0 1026.87,0L283.65,0Z" style="fill:rgb(178,0,73);"/>
                        </g>
                    </g>
                </g>
                <g transform="matrix(-1,0,0,1,590.815,-139.833)">
                    <path d="M283.65,0L283.65,122.381C283.65,122.381 344.899,325.45 449.048,324.516C555.409,323.561 572.544,85.742 646.158,85.377C715.901,85.031 763.715,217.546 844.592,215.169C933.444,212.558 1026.87,0 1026.87,0L283.65,0Z" style="fill:rgb(204,0,78);"/>
                </g>
                <g transform="matrix(-1,0,0,-1,1709.23,920.135)">
                    <path d="M283.65,0L283.65,122.381C283.65,122.381 344.899,325.45 449.048,324.516C555.409,323.561 572.544,85.742 646.158,85.377C715.901,85.031 763.715,217.546 844.592,215.169C933.444,212.558 1026.87,0 1026.87,0L283.65,0Z" style="fill:rgb(204,0,78);"/>
                </g>
                <g transform="matrix(-1,0,0,-1,761.053,920.135)">
                    <path d="M283.65,0L283.65,122.381C283.65,122.381 344.899,325.45 449.048,324.516C555.409,323.561 572.544,85.742 646.158,85.377C715.901,85.031 763.715,217.546 844.592,215.169C933.444,212.558 1026.87,0 1026.87,0L283.65,0Z" style="fill:rgb(204,0,78);"/>
                    <clipPath id="_clip4">
                        <path d="M283.65,0L283.65,122.381C283.65,122.381 344.899,325.45 449.048,324.516C555.409,323.561 572.544,85.742 646.158,85.377C715.901,85.031 763.715,217.546 844.592,215.169C933.444,212.558 1026.87,0 1026.87,0L283.65,0Z"/>
                    </clipPath>
                    <g clip-path="url(#_clip4)">
                        <g transform="matrix(1,0,0,1,13.7816,-99.8473)">
                            <path d="M283.65,0L283.65,122.381C283.65,122.381 344.899,325.45 449.048,324.516C555.409,323.561 572.544,85.742 646.158,85.377C715.901,85.031 763.715,217.546 844.592,215.169C933.444,212.558 1026.87,0 1026.87,0L283.65,0Z" style="fill:rgb(178,0,73);"/>
                        </g>
                    </g>
                </g>
            </g>
        </g>
    </g>
</svg>
