<?xml version="1.0" encoding="UTF-8" standalone="no"?>
<!DOCTYPE svg PUBLIC "-//W3C//DTD SVG 1.1//EN" "http://www.w3.org/Graphics/SVG/1.1/DTD/svg11.dtd">
<svg width="100%" height="100%" viewBox="0 0 1280 800" version="1.1" xmlns="http://www.w3.org/2000/svg" xmlns:xlink="http://www.w3.org/1999/xlink" xml:space="preserve" xmlns:serif="http://www.serif.com/" style="fill-rule:evenodd;clip-rule:evenodd;stroke-linejoin:round;stroke-miterlimit:1.41421;">
    <g transform="matrix(1,0,0,1,-1367.77,-1855.39)">
        <g id="Artboard1" transform="matrix(1,0,0,1,1367.77,1855.39)">
            <rect x="0" y="0" width="1280" height="800" style="fill:white;"/>
            <clipPath id="_clip1">
                <rect x="0" y="0" width="1280" height="800"/>
            </clipPath>
            <g clip-path="url(#_clip1)">
                <g>
                    <clipPath id="_clip2">
                        <rect x="0" y="0" width="1280" height="800"/>
                    </clipPath>
                    <g clip-path="url(#_clip2)">
                        <g transform="matrix(1,0,0,1,-1367.77,0)">
                            <path d="M1367.77,333.783C1367.77,333.783 1512.62,511.342 1580.38,497.293C1648.13,483.244 1703.07,268.298 1774.31,249.488C1845.54,230.679 1929.91,367.543 2007.77,384.435C2084.67,401.12 2171.74,329.778 2241.43,350.839C2311.13,371.9 2358.22,500.211 2425.94,510.8C2493.67,521.389 2647.77,414.374 2647.77,414.374L2647.77,800L1367.77,800L1367.77,333.783Z" style="fill:rgb(249,249,249);"/>
                        </g>
                        <g transform="matrix(-1,0,0,1,1563.65,-23.4957)">
                            <path d="M283.65,0L283.65,122.381C283.65,122.381 344.899,325.45 449.048,324.516C555.409,323.561 572.544,85.742 646.158,85.377C715.901,85.031 763.715,217.546 844.592,215.169C933.444,212.558 1026.87,0 1026.87,0L283.65,0Z" style="fill:rgb(242,242,242);"/>
                        </g>
                        <g transform="matrix(-1,0,0,1,590.815,-139.833)">
                            <path d="M283.65,0L283.65,122.381C283.65,122.381 344.899,325.45 449.048,324.516C555.409,323.561 572.544,85.742 646.158,85.377C715.901,85.031 763.715,217.546 844.592,215.169C933.444,212.558 1026.87,0 1026.87,0L283.65,0Z" style="fill:rgb(242,242,242);"/>
                        </g>
                        <g transform="matrix(-1,0,0,-1,1709.23,920.135)">
                            <path d="M283.65,0L283.65,122.381C283.65,122.381 344.899,325.45 449.048,324.516C555.409,323.561 572.544,85.742 646.158,85.377C715.901,85.031 763.715,217.546 844.592,215.169C933.444,212.558 1026.87,0 1026.87,0L283.65,0Z" style="fill:rgb(234,234,234);"/>
                        </g>
                        <g transform="matrix(-1,0,0,-1,761.053,920.135)">
                            <path d="M283.65,0L283.65,122.381C283.65,122.381 344.899,325.45 449.048,324.516C555.409,323.561 572.544,85.742 646.158,85.377C715.901,85.031 763.715,217.546 844.592,215.169C933.444,212.558 1026.87,0 1026.87,0L283.65,0Z" style="fill:rgb(242,242,242);"/>
                        </g>
                    </g>
                </g>
            </g>
        </g>
    </g>
</svg>
