<?xml version="1.0" encoding="UTF-8" standalone="no"?>
<!DOCTYPE svg PUBLIC "-//W3C//DTD SVG 1.1//EN" "http://www.w3.org/Graphics/SVG/1.1/DTD/svg11.dtd">
<svg width="100%" height="100%" viewBox="0 0 190 83" version="1.1" xmlns="http://www.w3.org/2000/svg" xmlns:xlink="http://www.w3.org/1999/xlink" xml:space="preserve" xmlns:serif="http://www.serif.com/" style="fill-rule:evenodd;clip-rule:evenodd;stroke-linejoin:round;stroke-miterlimit:1.41421;">
    <g id="Artboard1" transform="matrix(1,0,0,1.44647,0,0)">
        <rect x="0" y="0" width="189.099" height="56.763" style="fill:none;"/>
        <g transform="matrix(1,0,0,0.691339,-36.8753,-146.88)">
            <path d="M204.969,240.062C203.563,240.111 201.817,240.143 200,240.343C198.169,240.543 196.375,240.855 194.657,241.343C192.991,241.812 191.421,242.455 190,243.343C187.222,245.091 185.659,248.505 187.188,250.781C187.525,251.279 188.498,252.05 189.094,252.343C189.758,252.666 190.562,252.964 191.407,253.218C194.536,254.146 198.22,254.517 199.719,255.406C201.076,256.211 200.892,257.556 199.188,258.406C197.127,259.436 192.975,259.43 189.313,258.937C187.521,258.693 184.438,257.718 184.438,257.718L181.907,262.75C181.907,262.75 187.7,263.955 193.907,263.75C196.27,263.671 199.971,263.559 203.282,262.5C205.708,261.728 207.503,260.728 208.875,259.312C210.135,258.013 210.801,256.654 210.938,255.375C211.104,253.812 210.69,252.978 209.782,252.031C207.648,249.819 200.956,249.324 198.032,248.25C197.768,248.152 196.809,247.711 197.063,246.75C197.287,245.9 198.529,244.787 202.938,244.718C208.88,244.625 211.657,245.843 211.657,245.843L214.03,241.002C214.03,241.002 212.428,240.525 209.874,240.315C208.365,240.134 206.628,240.006 204.968,240.065L204.969,240.062ZM49.594,240.312L41.875,263.343L51.344,263.343L54.625,253.593L66.031,253.593L62.75,263.343L67.438,263.343L74.313,257.156L79.938,240.312L70.469,240.312L67.5,249.156L56.125,249.156L59.094,240.312L49.594,240.312L49.594,240.312ZM114.125,240.312L106.313,263.343L115.875,263.343L122.125,244.749C124.254,244.739 126.861,244.746 127.656,244.781C129.063,244.834 130.115,244.94 130.594,245.531C131.072,246.121 131.117,247.464 129.75,248.499C127.607,250.12 122.344,249.906 122.344,249.906L127.969,263.343L147.438,263.343L153.688,244.749C155.817,244.739 158.423,244.751 159.219,244.781C160.625,244.839 161.678,244.94 162.156,245.531C162.64,246.121 162.711,247.464 161.344,248.499C159.2,250.12 153.906,249.906 153.906,249.906L159.531,263.343L169.781,263.343C169.781,263.343 167.324,259.883 166.094,257.593C164.951,255.479 163.375,252.062 163.375,252.062C163.375,252.062 168.065,251.433 170.75,248.718C171.956,247.488 173.302,244.878 171.813,242.906C170.255,240.84 165.783,240.312 161.75,240.312L145.688,240.312L137.875,263.312C137.837,263.25 135.756,259.862 134.531,257.593C133.389,255.479 131.813,252.062 131.813,252.062C131.813,252.062 136.502,251.406 139.188,248.687C140.394,247.461 141.713,244.883 140.219,242.906C138.661,240.845 134.221,240.312 130.188,240.312L114.125,240.312L114.125,240.312ZM169.781,263.343L179.094,263.343L187.125,240.312L176.781,240.312L169.781,263.343L169.781,263.343Z" style="fill:rgb(30,28,28);fill-rule:nonzero;"/>
            <path d="M67.43,263.338L74.305,257.142" style="fill:rgb(235,28,38);fill-rule:nonzero;"/>
            <path d="M44.5,284.315C45.169,283.504 45.76,282.865 46.282,282.401L96.038,237.552L106.326,263.338L96.839,263.338L89.91,255.926L94.031,255.926L91.883,250.033L46.761,282.86C46.092,283.338 45.232,283.89 44.5,284.315" style="fill:rgb(235,28,38);fill-rule:nonzero;"/>
            <path d="M218.323,240.35C218.772,240.35 219.207,240.462 219.632,240.692C220.056,240.921 220.388,241.248 220.623,241.673C220.862,242.098 220.974,242.542 220.974,243.001C220.974,243.46 220.862,243.9 220.628,244.32C220.393,244.74 220.066,245.072 219.646,245.301C219.226,245.536 218.782,245.653 218.323,245.653C217.864,245.653 217.425,245.536 217,245.301C216.58,245.072 216.253,244.74 216.018,244.32C215.784,243.9 215.667,243.46 215.667,243.001C215.667,242.542 215.789,242.098 216.028,241.673C216.262,241.248 216.594,240.921 217.019,240.692C217.444,240.462 217.879,240.35 218.323,240.35M218.323,240.785C217.952,240.785 217.586,240.882 217.234,241.073C216.883,241.263 216.604,241.537 216.404,241.893C216.204,242.249 216.106,242.616 216.106,243.001C216.106,243.387 216.204,243.753 216.399,244.105C216.594,244.452 216.868,244.725 217.224,244.92C217.576,245.116 217.942,245.213 218.323,245.213C218.709,245.213 219.075,245.116 219.427,244.92C219.778,244.725 220.052,244.452 220.247,244.105C220.442,243.753 220.54,243.387 220.54,243.001C220.54,242.616 220.442,242.249 220.242,241.893C220.042,241.537 219.768,241.263 219.412,241.073C219.06,240.882 218.694,240.785 218.323,240.785ZM217.156,244.466L217.156,241.61L218.147,241.61C218.484,241.61 218.728,241.634 218.88,241.688C219.031,241.742 219.153,241.834 219.241,241.966C219.334,242.098 219.378,242.24 219.378,242.386C219.378,242.596 219.304,242.777 219.153,242.933C218.997,243.089 218.797,243.177 218.548,243.197C218.65,243.236 218.733,243.289 218.792,243.343C218.904,243.455 219.046,243.646 219.217,243.91L219.563,244.466L219.007,244.466L218.753,244.017C218.552,243.665 218.386,243.446 218.264,243.353C218.177,243.289 218.054,243.255 217.893,243.255L217.62,243.255L217.62,244.466L217.156,244.466ZM217.62,242.86L218.191,242.86C218.465,242.86 218.655,242.816 218.758,242.738C218.855,242.66 218.904,242.552 218.904,242.42C218.904,242.337 218.88,242.264 218.831,242.196C218.782,242.127 218.719,242.079 218.631,242.044C218.548,242.01 218.387,241.996 218.157,241.996L217.62,241.996L217.62,242.86" style="fill:rgb(30,28,28);fill-rule:nonzero;"/>
        </g>
    </g>
</svg>
