<?xml version="1.0" encoding="UTF-8" standalone="no"?>
<!DOCTYPE svg PUBLIC "-//W3C//DTD SVG 1.1//EN" "http://www.w3.org/Graphics/SVG/1.1/DTD/svg11.dtd">
<svg width="100%" height="100%" viewBox="0 0 418 252" version="1.1" xmlns="http://www.w3.org/2000/svg" xmlns:xlink="http://www.w3.org/1999/xlink" xml:space="preserve" xmlns:serif="http://www.serif.com/" style="fill-rule:evenodd;clip-rule:evenodd;stroke-linejoin:round;stroke-miterlimit:1.41421;">
    <g transform="matrix(1,0,0,1,-110.61,-193.7)">
        <g>
            <g id="Layer_1">
                <g id="Shadow">
                    <path d="M320.88,244.56L337.64,265.36L353.08,242.85L320.88,244.56Z" style="fill:rgb(52,49,122);fill-rule:nonzero;"/>
                    <path d="M483.29,336.42L500.05,357.22L517.86,350.27L516.05,328.33L502.16,327.88L483.29,336.42Z" style="fill:rgb(52,49,122);fill-rule:nonzero;"/>
                    <path d="M190.01,194.5L206.77,215.29L204.57,225.59L176.21,220.26L179.19,207.04L190.01,194.5Z" style="fill:rgb(52,49,122);fill-rule:nonzero;"/>
                    <path d="M111.16,336.42L127.92,357.22L149.55,343.31L151.04,332.43L138.68,331.15L111.16,336.42Z" style="fill:rgb(52,49,122);fill-rule:nonzero;"/>
                    <path d="M205.19,336.42L221.95,357.22L239.12,341.82L236.56,331.58L205.19,336.42Z" style="fill:rgb(52,49,122);fill-rule:nonzero;"/>
                    <path d="M253.62,326.25C253.62,326.25 268.76,349.71 279.42,354.83C290.08,359.95 290.94,337.34 290.94,337.34L270.89,325L257,322L253.62,326.25Z" style="fill:rgb(52,49,122);fill-rule:nonzero;"/>
                    <path d="M349.26,286.35L366.03,307.15L358.54,321.77L331.88,306.42L340.41,294.48L349.26,286.35Z" style="fill:rgb(52,49,122);fill-rule:nonzero;"/>
                    <path d="M335.51,197.23C335.51,197.23 354.15,208.47 363.23,229.23L355.34,241.17L325.48,205.56L335.51,197.23Z" style="fill:rgb(52,49,122);fill-rule:nonzero;"/>
                    <path d="M432.04,313.75L448.8,334.55L468.24,323.92L451.06,302.44L432.04,313.75Z" style="fill:rgb(52,49,122);fill-rule:nonzero;"/>
                    <path d="M374.48,336.42L391.24,357.22L408.98,350.11L409.4,329.07L390.94,322.2L374.48,336.42Z" style="fill:rgb(52,49,122);fill-rule:nonzero;"/>
                    <path d="M157.29,357.22L127.93,357.22L173.65,215.29L206.77,215.29L252.5,357.22L222,357.22L212.73,325.28L166.76,325.28L157.29,357.22ZM174.64,298.48L205,298.48L190,246.48L174.64,298.48Z" style="fill:rgb(52,49,122);fill-rule:nonzero;"/>
                    <path d="M337.64,248C337.64,243.66 335.28,241.29 330.94,241.29L300.19,241.29C295.85,241.29 293.49,243.66 293.49,248L293.49,324.5C293.49,328.83 295.85,331.2 300.19,331.2L330.94,331.2C335.28,331.2 337.64,328.83 337.64,324.5L337.64,307.15L366,307.15L366,330C366,346.55 354.56,358 338,358L293.1,358C276.54,358 265.1,346.56 265.1,330L265.1,242.5C265.1,225.94 276.54,214.5 293.1,214.5L338,214.5C347.95,214.5 356,218.63 360.93,225.5C364.35,230.498 366.12,236.445 365.99,242.5L365.99,265.36L337.64,265.36L337.64,248Z" style="fill:rgb(52,49,122);fill-rule:nonzero;"/>
                    <path d="M526.86,357.22L500.05,357.22L500.05,262.6L469.3,334.55L448.8,334.55L418.05,262.6L418.05,357.22L391.24,357.22L405.64,194.68L422.39,215.29L451.06,293.42L510.11,194.68L526.86,215.29L526.86,357.22Z" style="fill:rgb(52,49,122);fill-rule:nonzero;"/>
                </g>
                <g id="Text-Coloring" serif:id="Text Coloring">
                    <path d="M140.53,336.42L111.16,336.42L156.89,194.5L190,194.5L235.73,336.42L205.18,336.42L195.92,304.49L150,304.49L140.53,336.42ZM157.88,277.68L188.23,277.68L173.23,225.68L157.88,277.68Z" style="fill:rgb(168,150,253);fill-rule:nonzero;"/>
                    <path d="M320.88,227.22C320.88,222.88 318.51,220.52 314.18,220.52L283.43,220.52C279.09,220.52 276.73,222.88 276.73,227.22L276.73,303.7C276.73,308.03 279.09,310.4 283.43,310.4L314.18,310.4C318.51,310.4 320.88,308.03 320.88,303.7L320.88,286.35L349.26,286.35L349.26,309.22C349.26,325.77 337.83,337.22 321.26,337.22L276.33,337.22C259.77,337.22 248.33,325.78 248.33,309.22L248.33,221.7C248.33,205.14 259.76,193.7 276.33,193.7L321.27,193.7C337.83,193.7 349.27,205.13 349.27,221.7L349.27,244.56L320.88,244.56L320.88,227.22Z" style="fill:rgb(168,150,253);fill-rule:nonzero;"/>
                    <path d="M510.1,336.42L483.29,336.42L483.29,241.8L452.54,313.75L432,313.75L401.29,241.8L401.29,336.42L374.48,336.42L374.48,194.5L405.62,194.5L442.29,277.68L479,194.5L510.1,194.5L510.1,336.42Z" style="fill:rgb(168,150,253);fill-rule:nonzero;"/>
                </g>
                <g id="Outlines">
                    <path d="M140.53,336.42L111.16,336.42L156.89,194.5L190,194.5L235.73,336.42L205.19,336.42L195.92,304.49L150,304.49L140.53,336.42ZM147.23,300.54L198.68,300.54L208,332.48L230.66,332.48L187.5,198.48L159.5,198.48L116.34,332.48L137.82,332.48L147.23,300.54ZM219,325L182.52,205.93L164.38,205.93L127.33,325L131.07,325L140.93,293.06L205.58,293.06L215.24,325L219,325ZM166.75,209.87L180.15,209.87L204.4,289.11L142.11,289.11L166.75,209.87ZM193.16,281.62L174.63,217.76L171.87,217.76L153,281.62L193.16,281.62ZM173.25,225.62L188.25,277.62L157.88,277.62L173.25,225.62Z" style="fill:rgb(234,221,251);fill-rule:nonzero;"/>
                    <path d="M320.88,227.22C320.88,222.88 318.51,220.52 314.18,220.52L283.43,220.52C279.09,220.52 276.73,222.88 276.73,227.22L276.73,303.7C276.73,308.03 279.09,310.4 283.43,310.4L314.18,310.4C318.51,310.4 320.88,308.03 320.88,303.7L320.88,286.35L349.26,286.35L349.26,309.22C349.26,325.77 337.83,337.22 321.26,337.22L276.33,337.22C259.77,337.22 248.33,325.78 248.33,309.22L248.33,221.7C248.33,205.14 259.76,193.7 276.33,193.7L321.27,193.7C337.83,193.7 349.27,205.13 349.27,221.7L349.27,244.56L320.88,244.56L320.88,227.22ZM276.73,197.65C262.34,197.65 252.28,207.31 252.28,221.65L252.28,309.17C252.28,323.56 261.94,333.17 276.28,333.17L321.22,333.17C335.61,333.17 345.27,323.52 345.27,309.17L345.27,290.29L324.77,290.29L324.77,303.7C324.77,310.4 320.83,314.34 314.13,314.34L283.43,314.34C276.73,314.34 272.78,310.4 272.78,303.7L272.78,227.22C272.78,220.52 276.78,216.57 283.43,216.57L314.18,216.57C320.88,216.57 324.82,220.57 324.82,227.22L324.82,240.62L345.32,240.62L345.32,221.7C345.32,207.31 335.66,197.7 321.27,197.7L276.73,197.65ZM317.73,209.08C327.58,209.08 333.1,214.6 333.1,224.46L333.1,233.53L337,233.53L337,224.46C337,212.24 329.91,205.14 317.69,205.14L279.88,205.14C267.66,205.14 260.56,212.24 260.56,224.46L260.56,306.46C260.56,318.68 267.66,325.77 279.88,325.77L317.73,325.77C329.95,325.77 337.04,318.68 337.04,306.46L337.04,297.78L333.1,297.78L333.1,306.46C333.1,316.31 327.58,321.83 317.73,321.83L279.88,321.83C270.02,321.83 264.51,316.31 264.51,306.46L264.51,224.46C264.51,214.6 270.02,209.08 279.88,209.08L317.73,209.08Z" style="fill:rgb(234,221,251);fill-rule:nonzero;"/>
                    <path d="M510.09,336.42L483.29,336.42L483.29,241.8L452.54,313.75L432,313.75L401.29,241.8L401.29,336.42L374.48,336.42L374.48,194.5L405.62,194.5L442.29,277.68L479,194.5L510.14,194.5L510.09,336.42ZM397.35,332.48L397.35,230L399.52,230L434.21,309.83L450.37,309.83L485.06,230L487.23,230L487.23,332.5L506.15,332.5L506.15,198.5L481.15,198.5L443.15,284.64L441.5,284.64L403.5,198.5L378.5,198.5L378.5,332.5L397.35,332.48ZM444.46,296.4L440.12,296.4L399.12,205.93L385.91,205.93L385.91,325L389.86,325L389.86,209.87L397,209.87L438,300.35L446.68,300.35L487.68,209.87L494.78,209.87L494.78,325L498.72,325L498.72,205.93L485.52,205.93L444.46,296.4Z" style="fill:rgb(234,221,251);fill-rule:nonzero;"/>
                </g>
                <g id="SPC2018">
                    <path d="M145.7,390.27C145.716,390.146 145.723,390.021 145.723,389.897C145.723,388.251 144.369,386.897 142.723,386.897C142.599,386.897 142.474,386.904 142.35,386.92L128.16,386.92C128.033,386.904 127.905,386.895 127.777,386.895C126.131,386.895 124.777,388.25 124.777,389.895C124.777,390.021 124.784,390.146 124.8,390.27L124.8,397C124.8,399.16 125.99,399.85 128.16,400.35L146.48,404.29C154.17,405.96 160.67,410.59 160.67,418.48L160.67,431.29C160.67,439.56 154.96,445.29 146.67,445.29L124.61,445.29C116.33,445.29 110.61,439.57 110.61,431.29L110.61,422.2L124.41,422.2L124.41,428.51C124.394,428.634 124.387,428.759 124.387,428.883C124.387,430.529 125.741,431.883 127.387,431.883C127.511,431.883 127.636,431.876 127.76,431.86L143.13,431.86C143.254,431.876 143.379,431.883 143.503,431.883C145.149,431.883 146.503,430.529 146.503,428.883C146.503,428.759 146.496,428.634 146.48,428.51L146.48,421C146.48,418.83 145.3,418.14 143.13,417.65L124.8,413.71C117.12,412.03 110.61,407.4 110.61,399.52L110.61,387.52C110.61,379.24 116.33,373.52 124.61,373.52L145.5,373.52C153.78,373.52 159.5,379.24 159.5,387.52L159.5,395.79L145.7,395.79L145.7,390.27Z" style="fill:rgb(234,221,251);fill-rule:nonzero;"/>
                    <path d="M209.75,373.92C218.03,373.92 223.75,379.63 223.75,387.92L223.75,405.85C223.75,414.13 218.04,419.85 209.75,419.85L187.68,419.85L187.68,444.85L173.49,444.85L173.49,373.92L209.75,373.92ZM206.2,406.44C206.324,406.456 206.449,406.463 206.575,406.463C208.22,406.463 209.575,405.109 209.575,403.463C209.575,403.335 209.566,403.207 209.55,403.08L209.55,390.67C209.566,390.546 209.573,390.421 209.573,390.297C209.573,388.651 208.219,387.297 206.573,387.297C206.449,387.297 206.324,387.304 206.2,387.32L187.68,387.32L187.68,406.44L206.2,406.44Z" style="fill:rgb(234,221,251);fill-rule:nonzero;"/>
                    <path d="M269.08,390.27C269.096,390.146 269.103,390.021 269.103,389.897C269.103,388.251 267.749,386.897 266.103,386.897C265.979,386.897 265.854,386.904 265.73,386.92L250.35,386.92C250.226,386.904 250.101,386.897 249.977,386.897C248.331,386.897 246.977,388.251 246.977,389.897C246.977,390.021 246.984,390.146 247,390.27L247,428.51C246.984,428.634 246.977,428.759 246.977,428.883C246.977,430.529 248.331,431.883 249.977,431.883C250.101,431.883 250.226,431.876 250.35,431.86L265.73,431.86C265.854,431.876 265.979,431.883 266.103,431.883C267.749,431.883 269.103,430.529 269.103,428.883C269.103,428.759 269.096,428.634 269.08,428.51L269.08,419.84L283.27,419.84L283.27,431.27C283.27,439.54 277.55,445.27 269.27,445.27L246.81,445.27C238.53,445.27 232.81,439.55 232.81,431.27L232.81,387.52C232.81,379.24 238.53,373.52 246.81,373.52L269.27,373.52C277.55,373.52 283.27,379.24 283.27,387.52L283.27,399L269.08,399L269.08,390.27Z" style="fill:rgb(234,221,251);fill-rule:nonzero;"/>
                    <path d="M332.94,395.4L319.14,395.4L319.14,387.71C319.14,387.693 319.14,387.677 319.14,387.66C319.14,379.903 325.523,373.52 333.28,373.52C333.297,373.52 333.313,373.52 333.33,373.52L353.43,373.52C353.45,373.52 353.47,373.52 353.49,373.52C361.242,373.52 367.62,379.898 367.62,387.65C367.62,387.67 367.62,387.69 367.62,387.71L367.62,400.13C367.62,408.01 360.92,411.76 353.43,414.32L336.48,420.23C333.92,421.12 332.54,421.61 332.54,424.17L332.54,431.46L367.82,431.46L367.82,444.87L318.35,444.87L318.35,421C318.35,413.12 325.05,409.37 332.54,406.81L349.49,400.9C352.05,400.01 353.43,399.52 353.43,396.96L353.43,390.85C353.43,388.28 352.05,386.9 349.49,386.9L336.88,386.9C334.32,386.9 332.94,388.28 332.94,390.85L332.94,395.4Z" style="fill:rgb(234,221,251);fill-rule:nonzero;"/>
                    <path d="M391.77,445.26C383.49,445.26 377.77,439.54 377.77,431.26L377.77,387.52C377.77,379.24 383.48,373.52 391.77,373.52L413.94,373.52C422.22,373.52 427.94,379.24 427.94,387.52L427.94,431.27C427.94,439.54 422.23,445.27 413.94,445.27L391.77,445.26ZM391.97,428.51C391.954,428.634 391.947,428.759 391.947,428.883C391.947,430.529 393.301,431.883 394.947,431.883C395.071,431.883 395.196,431.876 395.32,431.86L410.39,431.86C410.514,431.876 410.639,431.883 410.763,431.883C412.409,431.883 413.763,430.529 413.763,428.883C413.763,428.759 413.756,428.634 413.74,428.51L413.74,390.27C413.756,390.146 413.763,390.021 413.763,389.897C413.763,388.251 412.409,386.897 410.763,386.897C410.639,386.897 410.514,386.904 410.39,386.92L395.32,386.92C395.196,386.904 395.071,386.897 394.947,386.897C393.301,386.897 391.947,388.251 391.947,389.897C391.947,390.021 391.954,390.146 391.97,390.27L391.97,428.51Z" style="fill:rgb(234,221,251);fill-rule:nonzero;"/>
                    <path d="M449.91,388.7L437,393.23L437,381.41L452.87,373.92L464.1,373.92L464.1,444.87L449.91,444.87L449.91,388.7Z" style="fill:rgb(234,221,251);fill-rule:nonzero;"/>
                    <path d="M527.57,398C527.71,402.436 525.291,406.58 521.36,408.64C526.28,411.01 528.36,415.05 528.36,419.28L528.36,431.11C528.36,431.13 528.36,431.15 528.36,431.17C528.36,438.922 521.982,445.3 514.23,445.3C514.21,445.3 514.19,445.3 514.17,445.3L492.48,445.3C492.463,445.3 492.447,445.3 492.43,445.3C484.673,445.3 478.29,438.917 478.29,431.16C478.29,431.143 478.29,431.127 478.29,431.11L478.29,419.24C478.29,415.01 480.36,410.97 485.29,408.6C481.372,406.546 478.956,402.422 479.08,398L479.08,387.71C479.08,387.693 479.08,387.677 479.08,387.66C479.08,379.903 485.463,373.52 493.22,373.52C493.237,373.52 493.253,373.52 493.27,373.52L513.37,373.52C513.39,373.52 513.41,373.52 513.43,373.52C521.187,373.52 527.57,379.903 527.57,387.66C527.57,387.677 527.57,387.693 527.57,387.71L527.57,398ZM497.21,415C494.45,415 492.48,416 492.48,418.94L492.48,428.2C492.48,430.77 493.86,432.15 496.43,432.15L510.22,432.15C512.78,432.15 514.16,430.77 514.16,428.2L514.16,418.94C514.16,415.94 512.16,415 509.43,415L497.21,415ZM497.21,386.82C494.65,386.82 493.27,388.2 493.27,390.76L493.27,398.44C493.27,401.6 494.45,402.39 497.21,402.39L509.43,402.39C512.19,402.39 513.37,401.6 513.37,398.44L513.37,390.76C513.37,388.2 512,386.82 509.43,386.82L497.21,386.82Z" style="fill:rgb(234,221,251);fill-rule:nonzero;"/>
                </g>
            </g>
        </g>
    </g>
</svg>
